<svg width="13" height="13" viewBox="0 0 13 13" fill="none" xmlns="http://www.w3.org/2000/svg">
<path d="M5.29227 10.0807C5.29227 10.2812 5.37192 10.4735 5.51371 10.6153C5.6555 10.7571 5.8478 10.8367 6.04832 10.8367C6.24883 10.8367 6.44114 10.7571 6.58292 10.6153C6.72471 10.4735 6.80436 10.2812 6.80436 10.0807V6.80449H10.0806C10.2811 6.80449 10.4734 6.72483 10.6152 6.58305C10.757 6.44126 10.8366 6.24895 10.8366 6.04844C10.8366 5.84792 10.757 5.65562 10.6152 5.51383C10.4734 5.37204 10.2811 5.29239 10.0806 5.29239H6.80436V2.01618C6.80436 1.81566 6.72471 1.62336 6.58292 1.48157C6.44114 1.33979 6.24883 1.26013 6.04832 1.26013C5.8478 1.26013 5.6555 1.33979 5.51371 1.48157C5.37192 1.62336 5.29227 1.81566 5.29227 2.01618V5.29239H2.01606C1.81554 5.29239 1.62324 5.37204 1.48145 5.51383C1.33966 5.65562 1.26001 5.84792 1.26001 6.04844C1.26001 6.24895 1.33966 6.44126 1.48145 6.58305C1.62324 6.72483 1.81554 6.80449 2.01606 6.80449H5.29227V10.0807Z" fill="white"/>
</svg>
