<svg width="20" height="31" viewBox="0 0 20 31" fill="none" xmlns="http://www.w3.org/2000/svg">
<path d="M0 1.16402C0 0.521151 0.52115 0 1.16402 0H8.14815C8.79102 0 9.31217 0.52115 9.31217 1.16402V8.14815C9.31217 8.79102 8.79102 9.31217 8.14815 9.31217H1.16402C0.521151 9.31217 0 8.79102 0 8.14815V1.16402Z" fill="#4A4E54"/>
<path d="M10.6878 1.16402C10.6878 0.521151 11.209 0 11.8519 0H18.836C19.4788 0 20 0.52115 20 1.16402V8.14815C20 8.79102 19.4788 9.31217 18.836 9.31217H11.8519C11.209 9.31217 10.6878 8.79102 10.6878 8.14815V1.16402Z" fill="#4A4E54"/>
<path d="M0 11.8518C0 11.209 0.52115 10.6878 1.16402 10.6878H8.14815C8.79102 10.6878 9.31217 11.209 9.31217 11.8518V18.836C9.31217 19.4788 8.79102 20 8.14815 20H1.16402C0.521151 20 0 19.4788 0 18.836V11.8518Z" fill="#4A4E54"/>
<path d="M10.6878 11.8519C10.6878 11.209 11.209 10.6878 11.8519 10.6878H18.836C19.4788 10.6878 20 11.209 20 11.8519V18.836C20 19.4788 19.4788 20 18.836 20H11.8519C11.209 20 10.6878 19.4788 10.6878 18.836V11.8519Z" fill="#4A4E54"/>
<path d="M0 22.5397C0 21.8968 0.52115 21.3757 1.16402 21.3757H8.14815C8.79102 21.3757 9.31217 21.8968 9.31217 22.5397V29.5238C9.31217 30.1667 8.79102 30.6878 8.14815 30.6878H1.16402C0.521151 30.6878 0 30.1667 0 29.5238V22.5397Z" fill="#4A4E54"/>
<path d="M10.6878 22.5397C10.6878 21.8968 11.209 21.3757 11.8519 21.3757H18.836C19.4788 21.3757 20 21.8968 20 22.5397V29.5238C20 30.1667 19.4788 30.6878 18.836 30.6878H11.8519C11.209 30.6878 10.6878 30.1667 10.6878 29.5238V22.5397Z" fill="#4A4E54"/>
</svg>
